<svg width="55.257mm" height="68.264mm" version="1.1" viewBox="0 0 55.257 68.264" xmlns="http://www.w3.org/2000/svg" fill="#000" stroke="#000" stroke-opacity=".91031" stroke-width=".26458">
 <g transform="translate(-55.431 -82.906)">
  <path d="m109.84 150.53 0.62462-0.50576 0.0736-32.501c0.0405-17.876 0.0105-32.761-0.0665-33.078-0.36342-1.4957 1.3557-1.4076-27.456-1.4076-24.273 0-26.525 0.0366-26.969 0.43788-0.46384 0.41977-0.48385 1.8087-0.48385 33.587v33.149l0.58804 0.41188c0.52262 0.36605 3.5068 0.41187 26.826 0.41187 25.439 0 26.257-0.0154 26.862-0.50576zm-52.16-27.408v-25.797h50.535v51.594h-50.535zm29.391 21.863c0.4968-0.40228 0.63028-0.81489 0.72013-2.226l0.1103-1.7322 1.5251-0.68442c0.83879-0.37643 1.6169-0.68441 1.7291-0.68441 0.11223 0 0.77685 0.53578 1.4769 1.1906 0.70594 0.66033 1.5307 1.1906 1.8516 1.1906 0.37238 0 1.4261-0.83372 2.9548-2.338 2.7677-2.7233 2.8754-3.1006 1.3997-4.9015l-0.97634-1.1915 0.45585-1.4069c0.25072-0.77381 0.48592-1.5377 0.52268-1.6975 0.03675-0.15981 0.82164-0.36737 1.7442-0.46125 2.458-0.25013 2.6034-0.50431 2.6034-4.55 0-3.2054-0.0114-3.2678-0.69714-3.8071-0.50852-0.40001-1.0812-0.54837-2.1167-0.54837-0.95785 0-1.4204-0.10757-1.4221-0.33073-0.0013-0.1819-0.2995-0.96855-0.6624-1.7481l-0.65981-1.4174 1.0593-1.2652c1.5838-1.8916 1.4896-2.2627-1.2901-5.0823-2.6777-2.7162-2.7893-2.7391-4.7224-0.96977-1.1272 1.0317-1.6079 1.2161-2.0697 0.79403-0.13824-0.12638-0.80374-0.43519-1.4789-0.68623l-1.2275-0.45645-0.11018-1.7304c-0.15941-2.5036-0.49551-2.718-4.26-2.718-2.6444 0-2.9899 0.0561-3.5426 0.57529-0.39272 0.36894-0.61236 0.87903-0.61236 1.4221 0 1.4254-0.31816 2.5392-0.76522 2.6788-0.23397 0.0731-0.9887 0.35295-1.6772 0.62197l-1.2518 0.48914-1.102-0.92067c-2.2096-1.8461-2.4607-1.7977-5.1503 0.99203-2.8846 2.9919-2.9321 3.244-0.99343 5.2742l0.90378 0.94643-0.6679 1.4348c-0.36734 0.78914-0.66906 1.5836-0.67048 1.7655-0.0019 0.2255-0.48121 0.33073-1.5069 0.33073-1.1804 0-1.6362 0.12388-2.1167 0.57528-0.57586 0.541-0.61236 0.7697-0.61236 3.8365 0 4.0258 0.17921 4.3195 2.6356 4.3195h1.5773l0.30252 1.1245c0.16638 0.61846 0.46059 1.4304 0.65379 1.8044 0.32734 0.63358 0.28113 0.7598-0.67791 1.8521-1.5623 1.7793-1.4622 2.1274 1.4262 4.9599 1.3628 1.3365 2.6589 2.43 2.88 2.43 0.22117 0 1.0516-0.53465 1.8453-1.1881l1.4432-1.1881 1.6053 0.58465 1.6053 0.58466 0.18081 1.7279c0.2825 2.6998 0.6012 2.9186 4.2508 2.9186 2.5022 0 3.0628-0.0774 3.5771-0.49381zm-5.8429-2.9589c0-1.5478-0.4884-2.6534-1.3665-3.0932-1.0337-0.51786-3.8931-1.6561-4.1602-1.6561-0.13802 0-0.88183 0.53851-1.6529 1.1967l-1.402 1.1967-3.1555-3.1555 0.97374-1.2498c0.53556-0.68741 0.97374-1.3762 0.97374-1.5306s-0.31197-1.1171-0.69326-2.1394c-0.38129-1.0222-0.80926-2.1783-0.95103-2.5691-0.29382-0.8098-1.3479-1.2739-2.8931-1.2739h-1.0189v-4.4296l1.5778-0.1785c1.2614-0.14271 1.6858-0.31587 2.1167-0.86361 0.29639-0.3768 0.5389-0.8516 0.5389-1.0551s0.29766-0.95739 0.66146-1.6753c0.91987-1.8153 0.85375-2.449-0.39707-3.806l-1.0585-1.1484 3.0652-3.3327 1.6138 1.2532 1.6138 1.2532 1.021-0.51298c0.56155-0.28213 1.6538-0.72001 2.4272-0.97307 1.5783-0.5164 2.0125-1.155 2.3003-3.3828l0.16237-1.2568h4.2009v1.5582c0 1.8835 0.38347 2.4068 2.249 3.0686 0.7276 0.25813 1.6942 0.69193 2.1479 0.96398 0.45374 0.27205 0.98952 0.49457 1.1906 0.49448 0.20111-9e-5 1.0435-0.53231 1.872-1.1827l1.5063-1.1825 2.9346 3.2428-1.1877 1.2697c-0.65323 0.69836-1.1877 1.3973-1.1877 1.5532 0 0.1559 0.34083 0.96468 0.75739 1.7973 0.41656 0.8326 0.90235 1.9612 1.0795 2.508 0.39532 1.2201 0.91596 1.5193 2.6436 1.5193h1.3403v4.7625h-1.4259c-1.8675 0-2.4483 0.48965-2.9728 2.5062-0.22605 0.86907-0.57897 1.905-0.78428 2.302-0.51628 0.99837-0.50419 1.0437 0.67188 2.5208l1.0452 1.3127-3.1234 3.0908-1.1648-1.0736c-0.64061-0.59049-1.4087-1.1511-1.7069-1.2457-0.35865-0.11383-1.3198 0.1974-2.84 0.91968-2.5385 1.2061-3.0449 1.8623-3.0449 3.9463v1.0668h-4.4979zm5.3631-9.5803c1.7955-0.75463 3.7715-2.9892 4.324-4.8899 1.7174-5.9078-4.2578-11.512-9.9728-9.3533-5.4593 2.062-6.8957 8.9665-2.6612 12.792 2.5214 2.2779 5.221 2.7493 8.3099 1.4511zm-4.6254-1.5588c-1.3978-0.38795-3.2537-2.116-3.7952-3.5338-1.6048-4.202 2.7555-8.6766 7.0529-7.2378 1.4771 0.49455 2.6377 1.5389 3.3065 2.9752 1.0184 2.1872 0.72943 4.2346-0.84346 5.9756-1.5249 1.6878-3.7025 2.3809-5.7208 1.8208zm-24.286-40.706v-5.0271h50.668v10.054h-50.668zm6.1307 0.88503c0.60039-0.54334 0.6151-1.0952 0.04597-1.7241-0.94848-1.0481-2.4725-0.3866-2.4725 1.0731 0 1.0124 1.5637 1.4319 2.4266 0.65099zm5.6676-0.22357c0.40148-0.61275 0.40148-0.71018 0-1.3229-0.29008-0.44271-0.67639-0.66146-1.1681-0.66146-0.91905 0-1.3697 0.43528-1.3697 1.3229 0 0.88763 0.45069 1.3229 1.3697 1.3229 0.49175 0 0.87806-0.21875 1.1681-0.66145zm5.2917 0c0.40148-0.61275 0.40148-0.71018 0-1.3229-0.29008-0.44271-0.67639-0.66146-1.1681-0.66146-0.91905 0-1.3697 0.43528-1.3697 1.3229 0 0.88763 0.45069 1.3229 1.3697 1.3229 0.49175 0 0.87806-0.21875 1.1681-0.66145z"/>
 </g>
</svg>
